<svg xmlns="http://www.w3.org/2000/svg" viewBox="0 0 448.4 102">
 <g>
  <path fill="#000" d="M446.3,33.1L445,48.6h-6.4c-10.1,0-15.4,8.1-15.4,15.9v35h-17.9V33.1h17l0.4,8.3c3.6-5.7,9.8-8.3,17.5-8.3H446.3z"/>
  <path fill="#000" d="M322.1,99.5h-17.9V64.4c0-7.4-0.7-16.6-11-16.6c-10,0-13.9,7.2-13.9,15.5v36.1h-17.9V33.1H278l0.4,8.5c3.6-5.7,10.2-10.1,20-10.1c18.1,0,23.8,12.9,23.8,26.3L322.1,99.5z"/>
  <path fill="#000" d="M253.5,84l-1.3,15.1c-4.2,1.1-8.4,1.7-12.7,1.6c-16.9,0-21.8-7.8-21.8-23.3v-63h18v18.7h17.8l-1.2,15.5h-16.6V76c0,6.3,1.7,9.6,8.1,9.6C247.1,85.7,250.4,85.1,253.5,84z"/>
  <path fill="#000" d="M211.8,33.1l-1.4,15.5h-4.9c-10.1,0-15.1,8.1-15.1,15.9v35h-17.9V33.1h16.9l0.3,8.3c3.6-5.6,9.8-8.3,17.5-8.3H211.8z"/>
  <path fill="#000" d="M91.6,92.2c-12.2,6.5-24.3,10.3-40.4,9.8C21.5,101.1,0,82.6,0,51.4C0,20.3,21.7,0.5,51.3,0c15-0.2,28.4,3.6,38.9,12.8L77.5,25.6C71,20,61.5,16.8,50,17.3c-18.6,0.8-29.8,14.4-30.1,33c-0.3,20.1,12.1,34,31.4,34.5c9.1,0.2,15.6-1,21.2-3.5V60.7H52.5l1.4-16.9h37.7L91.6,92.2z"/>
  <path fill="#000" d="M397.4,72.7h-49.2c1.4,8.5,8.1,13.6,16.4,13.9c8.1,0.2,12.6-2.2,18.5-8.2l11.7,8.9c-8.3,10.3-18.3,14-29.7,14c-20,0-34.9-14-34.9-34.8s14.9-34.8,34.2-34.8c21.3,0,33,12.9,33,35.8L397.4,72.7z M379.4,58.8c-0.6-8.4-6.8-13.7-15.5-13.3c-8.6,0.3-14.5,6-15.7,13.3H379.4z"/>
  <path fill="#000" d="M161.2,56v43.5h-15.8L145,93c-4.8,6-12.7,8.2-20.8,8.2c-12.2,0-23.7-6-24-20c-0.3-22,24.8-23.6,40.6-23.6h3.2v-0.9c0-7.3-4.8-11.2-13.9-11.2c-6.6,0-12.9,2.5-17.7,7.1L102,42c8.3-6.9,18.8-10.6,29.6-10.5C152.1,31.5,161.2,41,161.2,56z M144,70.6h-2.5c-8.5,0-23.4,0.4-23.3,9.3c0.1,12.5,25.8,8.5,25.8-6.6V70.6z"/>
  <path fill="#000" d="M432.3,91.8c0.1-4,3.5-7.2,7.5-7c4,0.1,7.2,3.5,7,7.5c-0.1,3.9-3.3,7-7.2,7c-4,0-7.2-3.3-7.2-7.2C432.3,92,432.3,91.9,432.3,91.8z M439.6,100.8c4.9-0.1,8.9-4.1,8.8-9.1c-0.1-4.9-4.1-8.9-9.1-8.8c-4.9,0.1-8.8,4-8.8,8.9c0,4.9,3.9,8.9,8.9,9C439.5,100.8,439.5,100.8,439.6,100.8L439.6,100.8z M437.7,92.5h1.8l2.7,4.4h1.7l-2.9-4.5c1.5-0.2,2.6-1,2.6-2.8c0-2-1.2-2.9-3.6-2.9h-3.9V97h1.6L437.7,92.5z M437.7,91.2V88h2.1c1.1,0,2.2,0.2,2.2,1.5c0,1.6-1.2,1.7-2.5,1.7L437.7,91.2z"/>
 </g>
</svg>
