<svg width="72" height="72" viewBox="0 0 72 72" fill="none" xmlns="http://www.w3.org/2000/svg">
<g clip-path="url(#clip0_1445_525)">
<path d="M61.2257 41.8327C54.3439 40.2516 45.3853 39.381 36 39.381C26.6147 39.381 17.6561 40.2516 10.774 41.8327C7.39357 42.6094 1 44.5722 1 46.4411C1 48.31 7.39357 50.2728 10.774 51.0499C17.6561 52.631 26.6144 53.5016 36 53.5016C45.3856 53.5016 54.3439 52.631 61.2257 51.0499C64.6064 50.2728 71 48.31 71 46.4411C71 44.5722 64.6064 42.6094 61.2257 41.8327Z" fill="white"/>
<path d="M54.6346 33.5319C54.0594 23.3176 47.3405 17.4984 36.0001 17.4984C24.6598 17.4984 17.9408 23.3176 17.3657 33.5319C20.813 32.3669 27.5702 31.0151 36.0005 31.0151C44.4307 31.0151 51.188 32.3669 54.6349 33.5319H54.6346Z" fill="white"/>
</g>
<defs>
<clipPath id="clip0_1445_525">
<rect width="70" height="36.0032" fill="white" transform="translate(1 17.4984)"/>
</clipPath>
</defs>
</svg>
