<svg width="72" height="72" viewBox="0 0 72 72" fill="none" xmlns="http://www.w3.org/2000/svg">
<rect width="72" height="72" rx="12" fill="white"/>
<g clip-path="url(#clip0_1445_166)">
<path d="M36 38.3146C16.6698 38.3146 1 42.1298 1 46.1412C1 50.1527 16.6698 53.9679 36 53.9679C55.3302 53.9679 71 50.1527 71 46.1412C71 42.1298 55.3302 38.3146 36 38.3146Z" fill="black"/>
<path d="M55.1228 35.0021C55.1228 23.6881 48.2564 17.0321 36.0001 17.0321C23.7438 17.0321 16.8774 23.6881 16.8774 35.0021C19.1917 33.9345 26.4059 32.098 36.0001 32.098C45.5943 32.098 52.8085 33.9341 55.1228 35.0021Z" fill="black"/>
</g>
<defs>
<clipPath id="clip0_1445_166">
<rect width="70" height="36.9357" fill="white" transform="translate(1 17.0321)"/>
</clipPath>
</defs>
</svg>
